<svg width="512" height="512" xmlns="http://www.w3.org/2000/svg" xml:space="preserve" version="1.1">

 <g>
  <title>Layer 1</title>
  <g id="svg_3"/>
  <g id="svg_4"/>
  <g id="svg_5"/>
  <g id="svg_6"/>
  <g id="svg_7"/>
  <g id="svg_8"/>
  <g id="svg_9"/>
  <g id="svg_10"/>
  <g id="svg_11"/>
  <g id="svg_12"/>
  <g id="svg_13"/>
  <g id="svg_14"/>
  <g id="svg_15"/>
  <g id="svg_16"/>
  <g id="svg_17"/>
  <line stroke-linecap="undefined" stroke-linejoin="undefined" id="svg_20" y2="24.8" x2="136" y1="98.8" x1="52" fill="#CDDC39"/>
  <path transform="rotate(50.0208 171.331 152)" stroke="null" id="svg_22" fill="#4CAF50" d="m276.488,125.184l-64,-106.667c-1.927,-3.217 -5.402,-5.185 -9.152,-5.184l-106.667,0c-5.891,-0.001 -10.668,4.774 -10.669,10.665c0,1.932 0.524,3.828 1.517,5.485l60.8,101.312l-82.261,143.914c-2.922,5.115 -1.144,11.631 3.971,14.553c1.617,0.923 3.447,1.408 5.309,1.405l106.667,0c3.835,0.006 7.378,-2.046 9.28,-5.376l85.333,-149.333c1.907,-3.351 1.858,-7.47 -0.128,-10.774z"/>
  <path transform="rotate(-69.7068 199.331 362)" id="svg_2" fill="#4CAF50" d="m304.488,335.184l-64,-106.667c-1.927,-3.217 -5.402,-5.185 -9.152,-5.184l-106.667,0c-5.891,-0.001 -10.668,4.774 -10.669,10.665c0,1.932 0.524,3.828 1.517,5.485l60.8,101.312l-82.261,143.914c-2.922,5.115 -1.144,11.631 3.971,14.553c1.617,0.923 3.447,1.408 5.309,1.405l106.667,0c3.835,0.006 7.378,-2.046 9.28,-5.376l85.333,-149.333c1.907,-3.351 1.858,-7.47 -0.128,-10.774z"/>
  <path transform="rotate(169.828 370.331 234)" id="svg_26" fill="#4CAF50" d="m475.488,207.184l-64,-106.667c-1.927,-3.217 -5.402,-5.185 -9.152,-5.184l-106.667,0c-5.891,-0.001 -10.668,4.774 -10.669,10.665c0,1.932 0.524,3.828 1.517,5.485l60.8,101.312l-82.261,143.914c-2.922,5.115 -1.144,11.631 3.971,14.553c1.617,0.923 3.447,1.408 5.309,1.405l106.667,0c3.835,0.006 7.378,-2.046 9.28,-5.376l85.333,-149.333c1.907,-3.351 1.858,-7.47 -0.128,-10.774z"/>
 </g>
</svg>